# xmcd
# 
# Track frame offsets:
#     150
#     35187
#     97925
# 
# Disc length: 1700
# 
# Revision: 1
# Processed by: cddbd v1.5.2PL0 Copyright (c) Steve Scherf et al.
# Submitted via: fre:ac v1.1rc1
# 
DISCID=1e06a203
DTITLE=日野皓正 - Taro's Mood  [Disc 2]
DYEAR=1973
DGENRE=J-Jazz
TTITLE0=Stella By Starlight
TTITLE1=Cycle Circle
TTITLE2=Lullaby
EXTD=YEAR: 1973
EXTT0=
EXTT1=
EXTT2=
PLAYORDER=
